<?xml version="1.0" encoding="UTF-8"?><svg id="Layer_2" xmlns="http://www.w3.org/2000/svg" viewBox="0 0 283.46453857421875 283.46453857421875"><defs><style>.cls-1{fill:#fff;}.cls-2{fill:#e40038;}</style></defs><g id="AXA_Logo_Open"><polygon id="switch" class="cls-2" points="174.041562395230358 140.071807316037848 276.715369325280335 6.748001160271087 261.550607803612365 6.748001160271087 158.537277072615325 140.071807316037848 174.041562395230358 140.071807316037848"/><path id="axa" class="cls-1" d="m0,0v283.46453857421875h283.46453857421875V0H0Zm276.71539306640625,276.716552734375H6.74920654296875v-26.9952392578125h11.90234375c.1490478515625-1.04144287109375,6.817626953125-10.61187744140625,7.72906494140625-11.528076171875.90191650390625-.92999267578125,23.78143310546875-30.99432373046875,23.78143310546875-30.99432373046875h40.12762451171875l4.6966552734375,16.25762939453125s-11.71429443359375,15.30859375-14.85760498046875,19.0057373046875c-1.86480712890625,2.180908203125-7.1986083984375,7.259033203125-7.1986083984375,7.259033203125h18.875244140625s.65093994140625-1.5623779296875,2.16241455078125-4.37139892578125c1.52093505859375-2.8038330078125,6.86376953125-9.29095458984375,6.86376953125-9.29095458984375,0,0,2.33477783203125,7.2637939453125,2.5205078125,8.49139404296875.23712158203125,1.5205078125.874267578125,5.17095947265625.874267578125,5.17095947265625h19.08477783203125s.67431640625-1.450927734375,2.19525146484375-4.2547607421875c1.50665283203125-2.80902099609375,7.03570556640625-8.86810302734375,7.03570556640625-8.86810302734375,0,0,2.1204833984375,6.72430419921875,2.3114013671875,7.951904296875.2371826171875,1.5205078125.8695068359375,5.17095947265625.8695068359375,5.17095947265625h24.395263671875s-3.64569091796875-6.32427978515625-4.46905517578125-8.43572998046875c-.47430419921875-1.171875-8.1099853515625-25.07427978515625-8.1099853515625-25.07427978515625l6.35711669921875-9.01239013671875h40.434326171875s9.20758056640625,29.62237548828125,10.30523681640625,33.5380859375c1.1019287109375,3.9248046875,1.19476318359375,8.98431396484375,1.19476318359375,8.98431396484375h25.4556884765625c-3.854736328125-2.72955322265625-13.55096435546875-36.98858642578125-18.25665283203125-50.1533203125l-12.3328857421875-42.740966796875c-.5999755859375-1.62762451171875-1.0556640625-7.510009765625-1.0556640625-7.510009765625h-19.6986083984375c-1.05572509765625,2.80859375-2.855224609375,5.3895263671875-4.07806396484375,7.6585693359375-1.5162353515625,2.80908203125-26.53955078125,35.6214599609375-32.04095458984375,42.5924072265625-.80908203125,1.037109375-1.278564453125,1.61376953125-1.278564453125,1.585693359375,0-.06524658203125-.17193603515625-.67901611328125-.418579101561591-1.585693359375-.906677246094659-3.15765380859375-2.767150878907159-9.50048828125-2.767150878907159-9.50048828125,0,0,21.3218994140625-27.09759521484375,23.49810791015625-29.855224609375,6.47808837890625-8.19384765625,10.17474365234375-10.895263671875,10.17474365234375-10.895263671875h-20.19140625s-.223388671875,3.664306640625-2.04144287109375,6.16143798828125c-.9671630859375,1.48809814453125-17.49432373046875,22.20526123046875-17.49432373046875,22.20526123046875,0,0-5.19476318359375-18.7452392578125-6.180419921875-21.77764892578125-.98095703125-3.03192138671875-.79052734375-6.58905029296875-.79052734375-6.58905029296875h-24.23284912109375c.91143798828125,1.03668212890625,3.7109375,7.9561767578125,3.7109375,7.9561767578125l11.94671630859375,36.7747802734375-6.989562988280341,8.9381103515625c-.297607421875-.4466552734375-12.937133789063409-41.9180908203125-13.476196289063409-43.64813232421875-.604736328125-1.95758056640625-1.24664306640625-10.02093505859375-1.24664306640625-10.02093505859375h-20.7447509765625s-4.02716064453125,8.7657470703125-6.8218994140625,12.82525634765625c-1.1533203125,1.6785888671875-14.3043212890625,19.3033447265625-28.32049560546875,37.42572021484375-15.59710693359375,20.78192138671875-32.5751953125,41.85711669921875-32.94281005859375,42.12713623046875-.07879638671875.05548095703125-.240478515625.2220458984375-.4671630859375.45330810546875V6.7503662109375h269.9661865234375v269.9661865234375Zm-196.34478759765625-100.9814453125c.91143798828125,3.62713623046875,6.13336181640625,19.721923828125,6.13336181640625,19.721923828125h-26.96240234375s17.0247802734375-20.7261962890625,19.9171142578125-26.94854736328125c.31671142578125-.6881103515625.3814697265625-.15338134765625.3814697265625.1766357421875,0,.4466552734375-.19525146484375,4.16241455078125.53045654296875,7.04998779296875Zm35.062866210938409,41.3223876953125l7.175720214842841-9.30950927734375s4.180480957032159,12.6766357421875,4.8642578125,13.41143798828125l-7.421875,10.19329833984375-4.618103027342841-14.29522705078125Zm68.527160644530341-41.3223876953125c.911376953125,3.62713623046875,6.1380615234375,19.721923828125,6.1380615234375,19.721923828125h-26.96234130859375s17.02471923828125-20.7261962890625,19.9171142578125-26.94854736328125c.316162109375-.6881103515625.37664794921875-.15338134765625.37664794921875.1766357421875,0,.4466552734375-.1951904296875,4.16241455078125.530517578125,7.04998779296875Z"/></g></svg>