<?xml version="1.0" encoding="utf-8"?>
<!-- Generator: Adobe Illustrator 27.4.1, SVG Export Plug-In . SVG Version: 6.00 Build 0)  -->
<svg version="1.1" id="Layer_1" xmlns="http://www.w3.org/2000/svg" xmlns:xlink="http://www.w3.org/1999/xlink" x="0px" y="0px"
	 viewBox="0 0 300 100" style="enable-background:new 0 0 300 100;" xml:space="preserve">
<style type="text/css">
	.st0{fill:#FECC00;}
	.st1{fill:#D50029;}
</style>
<path class="st0" d="M0,100V0h300v100H0z"/>
<path class="st1" d="M96.7,41.8c-1.3,2.7-3.5,7.3-4.8,10.1c-0.7,1.4-1.9,3.9,2.2,3.9h21.4c0,0,3.4-7.1,6.3-13
	c3.9-8,0.3-24.8-13.7-24.8H52.8l-9.6,19.7h52.2C98.1,37.6,98,39.1,96.7,41.8z M81,60.6c-4.1,0-2.8-2.5-2.2-3.9
	c1.3-2.7,3.6-7.3,4.9-10c1.3-2.6,1.3-4.2-1.3-4.2H58.5L39.3,82h46.9c15.5,0,24.1-15.9,26.8-21.4C113,60.6,85.3,60.6,81,60.6z
	 M111.6,82h27.5l10.4-21.4l-27.5,0C122,60.6,111.6,82,111.6,82L111.6,82z M182.6,18l-10.6,21.7h-12.3L170.3,18h-27.5l-18.4,37.8
	h67.4L210.2,18H182.6z M151.4,82h27.5l10.4-21.4h-27.5C161.8,60.6,151.4,82,151.4,82z M0,69.1v4.6h38.4l2.2-4.6H0z M44.7,60.6H0v4.5
	h42.5L44.7,60.6z M0,82h34.2l2.2-4.5H0V82z M259.6,73.6H300v-4.6h-38.2L259.6,73.6z M255.5,82H300v-4.5h-42.3L255.5,82z M265.9,60.6
	l-2.2,4.6H300v-4.6H265.9z M229.9,55.7L248.3,18h-29.2c0,0-18.4,37.8-18.4,37.8H229.9z M198.3,60.6c0,0-2,4.2-3,6.2
	c-3.5,7.1-0.4,15.3,10.9,15.3h44.2l10.4-21.4L198.3,60.6L198.3,60.6z"/>
</svg>
