<svg xmlns="http://www.w3.org/2000/svg" xmlns:xlink="http://www.w3.org/1999/xlink" width="460px" height="180px" viewBox="0 0 460 180"><title>Morandi_Logo_2022_White</title><defs><polygon id="path-1" points="0 0 460 0 460 180 0 180"></polygon></defs><g id="Morandi_Logo_2022_White" stroke="none" stroke-width="1" fill="none" fill-rule="evenodd"><g id="Group-3" transform="translate(0.060000, 0.000000)"><mask id="mask-2" fill="white"><use xlink:href="#path-1"></use></mask><g id="Clip-2"></g><polygon id="Fill-1" fill="#324548" mask="url(#mask-2)" points="-2.2762541e-15 180 460 180 460 0 -2.2762541e-15 0"></polygon></g><polyline id="Fill-4" fill="#FFFFFE" points="127.752 100.844 120.602 100.844 119.051 66.342 106.851 100.844 102.851 100.844 89.499 66.792 87.999 100.844 84.85 100.844 86.6 61.492 94.8 61.492 106.801 92.594 117.701 61.492 125.952 61.492 127.752 100.844"></polyline><path d="M143.725,81.193 C143.725,93.744 150.375,99.295 157.526,99.295 C164.726,99.295 171.376,93.744 171.376,81.193 C171.376,68.642 164.726,63.092 157.526,63.092 C150.375,63.092 143.725,68.642 143.725,81.193 Z M179.076,81.193 C179.076,93.644 169.626,101.545 157.526,101.545 C145.475,101.545 136.024,93.644 136.024,81.193 C136.024,68.742 145.475,60.842 157.526,60.842 C169.626,60.842 179.076,68.742 179.076,81.193 L179.076,81.193 Z" id="Fill-5" fill="#FFFFFE"></path><path d="M199.199,79.643 C205.749,79.643 210.05,78.143 210.05,71.893 C210.05,65.642 205.749,64.142 199.199,64.142 L196.449,64.142 L196.449,79.643 L199.199,79.643 Z M196.449,100.844 L189.398,100.844 L189.398,61.492 L199.299,61.492 C209,61.492 217.6,63.392 217.6,71.893 C217.6,77.543 213.8,80.293 208.399,81.493 L222.2,100.844 L213.6,100.844 L200.899,82.293 C200.399,82.293 199.849,82.293 199.299,82.293 L196.449,82.293 L196.449,100.844 L196.449,100.844 Z" id="Fill-6" fill="#FFFFFE"></path><path d="M238.979,83.643 L251.38,83.643 L245.129,67.892 L238.979,83.643 Z M253.029,87.744 L237.379,87.744 L232.278,100.844 L229.078,100.844 L244.729,61.492 L249.88,61.492 L265.53,100.844 L258.229,100.844 L253.029,87.744 L253.029,87.744 Z" id="Fill-7" fill="#FFFFFE"></path><polyline id="Fill-8" fill="#FFFFFE" points="307.275 61.492 307.275 100.844 301.575 100.844 278.523 66.542 278.523 100.844 275.373 100.844 275.373 61.492 283.224 61.492 304.075 92.594 304.075 61.492 307.275 61.492"></polyline><path d="M326.313,64.242 L326.313,98.094 L331.263,98.094 C339.163,98.094 346.913,94.193 346.913,81.193 C346.913,68.192 339.163,64.242 331.263,64.242 L326.313,64.242 Z M331.013,61.492 C344.714,61.492 354.614,68.892 354.614,81.193 C354.614,93.494 344.714,100.844 330.912,100.844 L319.262,100.844 L319.262,61.492 L331.013,61.492 L331.013,61.492 Z" id="Fill-9" fill="#FFFFFE"></path><polygon id="Fill-10" fill="#FFFFFE" points="364.201 100.844 371.252 100.844 371.252 61.492 364.201 61.492"></polygon><path d="M146.117,124.473 C145.794,123.85 145.446,123.586 144.954,123.586 C144.498,123.586 144.15,123.91 144.15,124.354 C144.15,125.816 147.736,125.625 147.736,128.119 C147.736,129.762 146.657,130.734 145.05,130.734 C143.527,130.734 142.424,129.666 142.16,128.383 L143.419,127.592 C143.671,128.492 144.175,129.295 145.086,129.295 C145.733,129.295 146.178,128.971 146.178,128.203 C146.178,126.813 142.663,127.088 142.663,124.426 C142.663,123.154 143.635,122.146 144.954,122.146 C146.069,122.146 146.921,122.699 147.377,123.67 L146.117,124.473" id="Fill-11" fill="#FFFFFE"></path><polyline id="Fill-12" fill="#FFFFFE" points="150.794 122.242 157.007 122.242 157.007 123.682 154.68 123.682 154.68 130.639 153.121 130.639 153.121 123.682 150.794 123.682 150.794 122.242"></polyline><path d="M161.563,126.441 C161.563,128.432 162.678,129.295 163.938,129.295 C165.196,129.295 166.312,128.432 166.312,126.441 C166.312,124.449 165.196,123.586 163.938,123.586 C162.678,123.586 161.563,124.449 161.563,126.441 Z M167.895,126.441 C167.895,129.355 166.06,130.734 163.938,130.734 C161.814,130.734 159.979,129.355 159.979,126.441 C159.979,123.525 161.814,122.146 163.938,122.146 C166.06,122.146 167.895,123.525 167.895,126.441 L167.895,126.441 Z" id="Fill-13" fill="#FFFFFE"></path><path d="M175.978,124.629 C175.978,123.945 175.558,123.682 174.994,123.682 L173.483,123.682 L173.483,125.576 L174.994,125.576 C175.558,125.576 175.978,125.313 175.978,124.629 Z M175.966,126.885 L178.292,130.639 L176.554,130.639 L174.299,127.016 L173.483,127.016 L173.483,130.639 L171.924,130.639 L171.924,122.242 L174.982,122.242 C176.661,122.242 177.537,123.238 177.537,124.629 C177.537,125.732 176.985,126.572 175.966,126.885 L175.966,126.885 Z" id="Fill-14" fill="#FFFFFE"></path><polyline id="Fill-15" fill="#FFFFFE" points="187.191 122.242 187.191 123.682 183.558 123.682 183.558 125.445 186.472 125.445 186.472 126.885 183.558 126.885 183.558 129.199 187.312 129.199 187.312 130.639 181.998 130.639 181.998 122.242 187.191 122.242"></polyline><polyline id="Fill-16" fill="#FFFFFE" points="197.598 122.242 197.598 130.639 195.955 130.639 192.873 125.098 192.873 130.639 191.313 130.639 191.313 122.242 192.957 122.242 196.039 127.783 196.039 122.242 197.598 122.242"></polyline><polyline id="Fill-17" fill="#FFFFFE" points="207.402 122.242 207.402 123.682 203.648 123.682 203.648 125.602 206.671 125.602 206.671 127.041 203.648 127.041 203.648 130.639 202.09 130.639 202.09 122.242 207.402 122.242"></polyline><path d="M212.419,127.221 L214.194,127.221 L213.307,124.305 L212.419,127.221 Z M214.638,128.66 L211.976,128.66 L211.364,130.639 L209.685,130.639 L212.527,122.242 L214.086,122.242 L216.929,130.639 L215.25,130.639 L214.638,128.66 L214.638,128.66 Z" id="Fill-18" fill="#FFFFFE"></path><path d="M222.031,126.943 L222.031,129.199 L223.459,129.199 C224.43,129.199 224.813,128.791 224.813,128.072 C224.813,127.352 224.43,126.943 223.459,126.943 L222.031,126.943 Z M222.031,123.682 L222.031,125.506 L223.459,125.506 C224.082,125.506 224.442,125.277 224.442,124.594 C224.442,123.91 224.082,123.682 223.423,123.682 L222.031,123.682 Z M223.543,122.242 C224.97,122.242 225.941,122.986 225.941,124.51 C225.941,125.193 225.642,125.781 225.113,126.057 C225.905,126.381 226.373,127.041 226.373,128.107 C226.373,129.738 225.317,130.639 223.603,130.639 L220.473,130.639 L220.473,122.242 L223.543,122.242 L223.543,122.242 Z" id="Fill-19" fill="#FFFFFE"></path><path d="M234.435,124.629 C234.435,123.945 234.016,123.682 233.451,123.682 L231.94,123.682 L231.94,125.576 L233.451,125.576 C234.016,125.576 234.435,125.313 234.435,124.629 Z M234.423,126.885 L236.75,130.639 L235.011,130.639 L232.756,127.016 L231.94,127.016 L231.94,130.639 L230.381,130.639 L230.381,122.242 L233.439,122.242 C235.118,122.242 235.994,123.238 235.994,124.629 C235.994,125.732 235.442,126.572 234.423,126.885 L234.423,126.885 Z" id="Fill-20" fill="#FFFFFE"></path><polygon id="Fill-21" fill="#FFFFFE" points="240.455 130.639 242.015 130.639 242.015 122.242 240.455 122.242"></polygon><polyline id="Fill-22" fill="#FFFFFE" points="248.044 122.242 248.044 125.361 250.91 122.242 252.829 122.242 249.423 125.996 253.069 130.639 251.09 130.639 248.044 126.633 248.044 130.639 246.484 130.639 246.484 122.242 248.044 122.242"></polyline><polyline id="Fill-23" fill="#FFFFFE" points="261.46 122.242 267.025 122.242 267.025 122.963 263.427 129.199 267.193 129.199 267.193 130.639 261.256 130.639 261.256 129.918 264.891 123.682 261.46 123.682 261.46 122.242"></polyline><path d="M275.138,119.629 C275.641,119.629 275.988,119.988 275.988,120.48 C275.988,120.971 275.641,121.332 275.138,121.332 C274.634,121.332 274.286,120.971 274.286,120.48 C274.286,119.988 274.634,119.629 275.138,119.629 Z M272.654,119.629 C273.158,119.629 273.506,119.988 273.506,120.48 C273.506,120.971 273.158,121.332 272.654,121.332 C272.15,121.332 271.803,120.971 271.803,120.48 C271.803,119.988 272.15,119.629 272.654,119.629 Z M277.021,127.447 C277.021,129.691 275.725,130.734 273.89,130.734 C272.055,130.734 270.76,129.691 270.76,127.447 L270.76,122.242 L272.318,122.242 L272.318,127.473 C272.318,128.695 272.835,129.295 273.89,129.295 C274.945,129.295 275.461,128.695 275.461,127.473 L275.461,122.242 L277.021,122.242 L277.021,127.447 L277.021,127.447 Z" id="Fill-24" fill="#FFFFFE"></path><path d="M285.405,124.629 C285.405,123.945 284.986,123.682 284.422,123.682 L282.911,123.682 L282.911,125.576 L284.422,125.576 C284.986,125.576 285.405,125.313 285.405,124.629 Z M285.394,126.885 L287.721,130.639 L285.981,130.639 L283.727,127.016 L282.911,127.016 L282.911,130.639 L281.352,130.639 L281.352,122.242 L284.41,122.242 C286.089,122.242 286.965,123.238 286.965,124.629 C286.965,125.732 286.413,126.572 285.394,126.885 L285.394,126.885 Z" id="Fill-25" fill="#FFFFFE"></path><polygon id="Fill-26" fill="#FFFFFE" points="291.426 130.639 292.985 130.639 292.985 122.242 291.426 122.242"></polygon><path d="M303.049,125.049 C302.726,124.197 302.138,123.586 300.975,123.586 C299.679,123.586 298.588,124.498 298.588,126.441 C298.588,128.383 299.679,129.295 300.975,129.295 C302.138,129.295 302.726,128.684 303.049,127.832 L304.452,128.191 C304.057,129.799 302.797,130.734 300.975,130.734 C298.875,130.734 297.005,129.246 297.005,126.441 C297.005,123.635 298.875,122.146 300.975,122.146 C302.797,122.146 304.057,123.082 304.452,124.689 L303.049,125.049" id="Fill-27" fill="#FFFFFE"></path><polyline id="Fill-28" fill="#FFFFFE" points="308.299 122.242 309.858 122.242 309.858 125.434 313.217 125.434 313.217 122.242 314.775 122.242 314.775 130.639 313.217 130.639 313.217 126.873 309.858 126.873 309.858 130.639 308.299 130.639 308.299 122.242"></polyline></g></svg>